<svg xmlns="http://www.w3.org/2000/svg" xmlns:xlink="http://www.w3.org/1999/xlink" width="136" height="18"
     viewBox="0 0 136 18">
  <defs>
    <path id="knoca"
          d="M88.174 1986.024c-1.3 1.352-2.97 2.04-5.064 2.04s-3.79-.688-5.063-2.04c-1.246-1.3-1.856-2.97-1.856-5.01 0-2.042.61-3.712 1.856-5.011 1.3-1.352 2.97-2.041 5.063-2.041 2.095 0 3.791.689 5.064 2.04 1.246 1.3 1.855 2.97 1.855 5.011s-.61 3.712-1.855 5.01zM83.11 1972c-2.624 0-4.771.875-6.441 2.624-1.644 1.697-2.466 3.818-2.466 6.363 0 2.545.822 4.665 2.466 6.362 1.67 1.75 3.844 2.625 6.441 2.625 2.625 0 4.772-.875 6.442-2.625 1.644-1.697 2.466-3.817 2.466-6.362s-.822-4.666-2.466-6.363c-1.67-1.75-3.844-2.624-6.442-2.624z"/>
    <path id="knocb"
          d="M109.116 1980.324l-6.282-8.324H100.5v18h2.014v-14.978l6.601 8.377 6.495-8.377V1990h1.988v-18h-2.306z"/>
    <path id="knocc"
          d="M138.118 1980.43c-.716.663-1.75 1.007-3.128 1.007h-5.78v-7.555h5.78c1.378 0 2.412.345 3.128 1.008.716.662 1.06 1.59 1.06 2.783 0 1.166-.344 2.094-1.06 2.757zm-2.996-8.43h-7.9v18h1.989v-6.68h5.911c1.856 0 3.34-.504 4.427-1.538 1.087-1.007 1.644-2.386 1.644-4.135 0-1.724-.53-3.076-1.617-4.11-1.114-1.033-2.598-1.537-4.454-1.537z"/>
    <path id="knocd" d="M176.398 1988.091V1972h-1.989v18h11.585v-1.909z"/>
    <path id="knoce"
          d="M63.997 1986.024c-1.299 1.352-2.969 2.04-5.063 2.04-2.095 0-3.791-.688-5.064-2.04-1.246-1.3-1.855-2.97-1.855-5.01 0-2.042.61-3.712 1.855-5.011 1.3-1.352 2.97-2.041 5.064-2.041s3.79.689 5.063 2.04c.53.558.954 1.22 1.246 1.91h2.12a8.34 8.34 0 0 0-1.987-3.261c-1.697-1.776-3.844-2.651-6.469-2.651-2.624 0-4.772.875-6.442 2.624-1.643 1.724-2.465 3.844-2.465 6.39 0 2.544.822 4.665 2.465 6.362 1.67 1.75 3.844 2.624 6.442 2.624 2.625 0 4.772-.875 6.442-2.624a8.419 8.419 0 0 0 2.068-3.5h-2.094a6.461 6.461 0 0 1-1.326 2.148z"/>
    <path id="knocf"
          d="M150.153 1979.873c.186-1.537.769-2.836 1.776-3.87 1.3-1.352 2.97-2.041 5.064-2.041s3.79.689 5.063 2.04c1.007 1.061 1.59 2.36 1.776 3.871zm13.308-5.222c-1.697-1.776-3.844-2.651-6.468-2.651-2.625 0-4.772.875-6.442 2.624-1.644 1.697-2.466 3.818-2.466 6.363 0 2.545.822 4.665 2.466 6.362 1.67 1.75 3.844 2.625 6.442 2.625 2.598 0 4.771-.875 6.441-2.625a8.419 8.419 0 0 0 2.068-3.5h-2.094a7.002 7.002 0 0 1-1.352 2.148c-1.3 1.352-2.97 2.041-5.063 2.041-2.095 0-3.791-.689-5.064-2.04-1.06-1.114-1.67-2.52-1.802-4.163H165.847c.026-.292.053-.557.053-.848.026-2.519-.795-4.64-2.44-6.336z"/>
  </defs>
  <g>
    <g transform="translate(-50 -1972)">
      <g>
        <use class="logo-letter" xlink:href="#knoca"/>
      </g>
      <g>
        <use class="logo-letter" xlink:href="#knocb"/>
      </g>
      <g>
        <use class="logo-letter" xlink:href="#knocc"/>
      </g>
      <g>
        <use class="logo-letter" xlink:href="#knocd"/>
      </g>
      <g>
        <use class="logo-letter" xlink:href="#knoce"/>
      </g>
      <g>
        <use class="logo-letter" xlink:href="#knocf"/>
      </g>
    </g>
  </g>
</svg>

