<svg xmlns="http://www.w3.org/2000/svg" width="119" height="79" viewBox="0 0 119 79">
  <g id="Group_2494" data-name="Group 2494" transform="translate(-1181 -530)">
    <g id="Group_2234" data-name="Group 2234" transform="translate(281.536 -163)">
      <g id="Ellipse_116" data-name="Ellipse 116" transform="translate(899.464 693)" fill="none" stroke="#1b284b" stroke-width="1.5">
        <circle cx="39.5" cy="39.5" r="39.5" stroke="none"/>
        <circle cx="39.5" cy="39.5" r="38.75" fill="none"/>
      </g>
      <g id="Ellipse_117" data-name="Ellipse 117" transform="translate(939.464 693)" fill="none" stroke="#1b284b" stroke-width="1.5">
        <circle cx="39.5" cy="39.5" r="39.5" stroke="none"/>
        <circle cx="39.5" cy="39.5" r="38.75" fill="none"/>
      </g>
    </g>
    <g id="Intersection_1" data-name="Intersection 1" transform="translate(-2054 -15535)" fill="#fff">
      <path d="M 3294.4990234375 16137.6962890625 C 3288.9482421875 16134.3447265625 3284.29345703125 16129.625 3281.019775390625 16124.025390625 C 3279.32421875 16121.125 3278.0146484375 16118.015625 3277.127197265625 16114.7841796875 C 3276.212158203125 16111.451171875 3275.748046875 16107.9912109375 3275.748046875 16104.5009765625 C 3275.748046875 16101.009765625 3276.212158203125 16097.5498046875 3277.127197265625 16094.2158203125 C 3278.0146484375 16090.9833984375 3279.32421875 16087.8740234375 3281.019775390625 16084.9736328125 C 3284.29345703125 16079.3740234375 3288.947509765625 16074.65625 3294.4990234375 16071.3046875 C 3300.0498046875 16074.65625 3304.70361328125 16079.3740234375 3307.97705078125 16084.9736328125 C 3309.672607421875 16087.8740234375 3310.982177734375 16090.984375 3311.86962890625 16094.2158203125 C 3312.78466796875 16097.5498046875 3313.248779296875 16101.009765625 3313.248779296875 16104.5009765625 C 3313.248779296875 16107.9912109375 3312.78466796875 16111.451171875 3311.86962890625 16114.7841796875 C 3310.982177734375 16118.015625 3309.672607421875 16121.125 3307.97705078125 16124.025390625 C 3304.703857421875 16129.625 3300.04931640625 16134.34375 3294.4990234375 16137.6962890625 Z" stroke="none"/>
      <path d="M 3294.4990234375 16136.81640625 C 3299.771728515625 16133.5458984375 3304.19580078125 16129.0078125 3307.32958984375 16123.6474609375 C 3308.9921875 16120.802734375 3310.2763671875 16117.75390625 3311.146240234375 16114.5849609375 C 3312.043701171875 16111.3173828125 3312.498779296875 16107.923828125 3312.498779296875 16104.5009765625 C 3312.498779296875 16101.0771484375 3312.043701171875 16097.68359375 3311.146240234375 16094.4140625 C 3310.2763671875 16091.2451171875 3308.9921875 16088.1962890625 3307.32958984375 16085.3525390625 C 3304.19580078125 16079.9912109375 3299.771728515625 16075.4541015625 3294.4990234375 16072.18359375 C 3289.2255859375 16075.4541015625 3284.80126953125 16079.9912109375 3281.66748046875 16085.3525390625 C 3280.004638671875 16088.1962890625 3278.720458984375 16091.2451171875 3277.8505859375 16094.4140625 C 3276.953125 16097.68359375 3276.498046875 16101.0771484375 3276.498046875 16104.5009765625 C 3276.498046875 16107.923828125 3276.953125 16111.3173828125 3277.8505859375 16114.5849609375 C 3278.720458984375 16117.75390625 3280.004638671875 16120.802734375 3281.66748046875 16123.6474609375 C 3284.80126953125 16129.0078125 3289.225830078125 16133.5458984375 3294.4990234375 16136.81640625 M 3294.4990234375 16138.5693359375 C 3282.829345703125 16131.7041015625 3274.998046875 16119.0166015625 3274.998046875 16104.5009765625 C 3274.998046875 16089.9814453125 3282.829345703125 16077.294921875 3294.4990234375 16070.431640625 C 3306.16748046875 16077.294921875 3313.998779296875 16089.9814453125 3313.998779296875 16104.5009765625 C 3313.998779296875 16119.0166015625 3306.16748046875 16131.7041015625 3294.4990234375 16138.5693359375 Z" stroke="none" fill="#d56c6a"/>
    </g>
  </g>
</svg>
